<?xml version="1.0" encoding="UTF-8"?>
<svg width="222px" height="53px" viewBox="0 0 222 53" version="1.1" xmlns="http://www.w3.org/2000/svg" xmlns:xlink="http://www.w3.org/1999/xlink">
    <!-- Generator: Sketch 48.2 (47327) - http://www.bohemiancoding.com/sketch -->
    <title>logo</title>
    <desc>Created with Sketch.</desc>
    <defs></defs>
    <g id="01-wide-blue" stroke="none" stroke-width="1" fill="none" fill-rule="evenodd" transform="translate(-710.000000, -75.000000)">
        <g id="logo" transform="translate(710.000000, 75.000000)">
            <g id="Page-1" transform="translate(0.000000, 0.363000)">
                <path d="M112.673249,3.151566 L75.1476375,3.151566 L75.1476375,9.72477 L90.4427158,9.72477 L90.4427158,51.088257 L97.3785324,51.088257 L97.3785324,9.72477 L112.673249,9.72477 L112.673249,3.151566 Z M147.536487,36.3155727 L147.536487,37.5465057 C147.494207,38.7313377 147.288225,39.8584527 146.924323,40.8959067 C146.564758,41.9181147 146.041129,42.8194437 145.367893,43.5748467 C144.696825,44.3280717 143.842902,44.9422677 142.830699,45.4000107 C141.819941,45.8584797 140.611512,46.0907997 139.239382,46.0907997 C137.467574,46.0907997 135.980166,45.7194507 134.819077,44.9865537 C133.750138,44.3135517 133.229762,43.1726427 133.229762,41.4984867 C133.229762,39.6856647 134.036345,38.4180687 135.693959,37.6230987 C137.503711,36.7555287 140.015971,36.3155727 143.160993,36.3155727 L147.536487,36.3155727 Z M154.20778,47.7007047 C154.12358,46.7975607 154.080215,45.9034917 154.080215,45.0439077 L154.080215,31.8470427 C154.080215,27.3008307 153.002965,23.8421667 150.877735,21.5672457 C148.739495,19.2803457 145.263095,18.1209237 140.546104,18.1209237 C138.254281,18.1209237 135.963543,18.5216757 133.736406,19.3115637 C131.484696,20.1116157 129.511242,21.3755817 127.871335,23.0678877 L127.383483,23.5710057 L131.562752,27.9404367 L132.08349,27.4547427 C133.221451,26.3929677 134.553107,25.5943677 136.041238,25.0821747 C137.550328,24.5634477 139.110372,24.3002727 140.678004,24.3002727 C142.884905,24.3002727 144.607566,24.8164587 145.797203,25.8339477 C146.967688,26.8369167 147.536487,28.3099707 147.536487,30.3369627 L147.536487,30.5300787 L146.298065,30.5300787 C144.422543,30.5300787 142.3255,30.6193767 140.065117,30.7950687 C137.768236,30.9743907 135.593859,31.4299557 133.602337,32.1486957 C131.560584,32.8863117 129.824552,34.0341177 128.442665,35.5605327 C127.01669,37.1359527 126.293584,39.3106857 126.293584,42.0237477 C126.293584,43.6278447 126.630383,45.0689547 127.294947,46.3067847 C127.952283,47.5344507 128.845595,48.5755347 129.950671,49.4013597 C131.039485,50.2162947 132.327054,50.8406547 133.779048,51.2570157 C135.210805,51.6679317 136.761453,51.8759307 138.389434,51.8759307 C140.862666,51.8759307 143.021503,51.3332457 144.805598,50.2631217 C145.986201,49.5552717 147.017196,48.7033107 147.888103,47.7192177 C147.890271,47.8281177 147.893162,47.9384697 147.896053,48.0495477 C147.918819,48.9523287 148.025063,49.7897697 148.211892,50.5382757 L148.348852,51.0882207 L154.667445,51.0882207 L154.527594,50.2427937 C154.399307,49.4670627 154.291257,48.6121977 154.20778,47.7007047 Z M168.078943,27.3807633 L168.079304,27.3804003 C168.853364,26.4238953 169.852558,25.6641363 171.049784,25.1229033 C172.25749,24.5769513 173.674791,24.3003453 175.263022,24.3003453 C176.674181,24.3003453 177.979096,24.5754993 179.141269,25.1189103 C180.301635,25.6615953 181.405265,26.5574793 182.421083,27.7815153 L182.898094,28.3568703 L188.058489,23.7580233 L187.559795,23.2138863 C185.965783,21.4758423 184.082672,20.1766653 181.962501,19.3515663 C179.861483,18.5351793 177.607605,18.1209963 175.263022,18.1209963 C172.825205,18.1209963 170.565545,18.5482473 168.547281,19.3914963 C166.524681,20.2365603 164.761185,21.4297413 163.305939,22.9376433 C161.850332,24.4451823 160.709841,26.2496553 159.915906,28.3009683 C159.124501,30.3446583 158.722655,32.5981623 158.722655,34.9986813 C158.722655,37.4427603 159.124501,39.7184073 159.915545,41.7613713 C160.708396,43.8094173 161.8366,45.6128013 163.269079,47.1210663 C164.707702,48.6347763 166.475535,49.8192453 168.523792,50.6421663 C170.561209,51.4607313 172.828819,51.8760033 175.263022,51.8760033 C177.564602,51.8760033 179.786318,51.4614573 181.866738,50.6439813 C183.970647,49.8170673 185.824486,48.4910283 187.376941,46.7028903 L187.832631,46.1783553 L182.940013,41.5174353 L182.455774,42.1886223 C180.754073,44.5492113 178.401178,45.6970173 175.263022,45.6970173 C173.808138,45.6970173 172.48154,45.4215003 171.319729,44.8780893 C170.155388,44.3339523 169.149327,43.5687483 168.328651,42.6028053 C167.494604,41.6219793 166.834738,40.4709063 166.366761,39.1811673 C165.897339,37.8896133 165.659195,36.4822623 165.659195,34.9986813 C165.659195,33.5034843 165.867345,32.0863323 166.278587,30.7860663 C166.683685,29.5021353 167.289345,28.3565073 168.078943,27.3807633 M204.269104,33.6412791 L219.830513,18.9089241 L210.4623,18.9089241 L197.55517,31.4480331 L197.55517,-0.0001089 L191.011803,-0.0001089 L191.011803,51.0881481 L197.55517,51.0881481 L197.55517,36.0385311 L211.684823,51.0881481 L221.229385,51.0881481 L204.269104,33.6412791 Z M77.3858324,21.9079575 C79.4120463,23.7690585 81.8278194,27.1543965 81.8278194,32.7119265 L81.8278194,51.0245505 L75.3111946,51.0245505 L75.3111946,32.7119265 C75.3111946,30.2003295 74.5078642,28.1348595 72.9886555,26.7391245 C71.6273664,25.4893155 69.7659382,24.8007045 67.746229,24.8007045 C62.5251235,24.8007045 60.1881295,28.7679315 60.1881295,32.6995845 L60.1881295,51.0125715 L53.6715047,51.0125715 L53.6715047,32.6995845 C53.6715047,23.2162095 60.7518701,18.2547255 67.746229,18.2547255 C71.3975337,18.2547255 74.8208125,19.5520875 77.3858324,21.9079575 Z M120.061974,18.2547255 C121.442415,18.2547255 122.809848,18.4442115 124.125604,18.8173755 L124.687176,18.9770955 L124.252807,25.8708285 L123.309987,25.4628165 C122.295254,25.0235865 121.202103,24.8007045 120.061974,24.8007045 C114.840868,24.8007045 112.503874,28.7679315 112.503874,32.6995845 L112.503874,51.0125715 L105.987249,51.0125715 L105.987249,32.6995845 C105.987249,23.2162095 113.067615,18.2547255 120.061974,18.2547255 Z" id="Fill-1" fill="#FFFFFF"></path>
                <g id="Group-20" transform="translate(0.000000, 2.182356)">
                    <path d="M43.3723609,15.0817425 L42.2831851,10.9994445 L41.1943707,6.9171465 C41.1304078,6.6768405 41.0194665,6.4684785 40.8778086,6.2942385 C40.7202503,6.1570245 40.5583556,6.0263445 40.3979063,5.8934865 C34.4479131,0.9508785 26.289213,-1.1349195 18.2793983,1.0209375 C8.90395798,3.5445135 2.2384478,11.2016355 0.467362663,20.1760845 C0.546864546,19.9637295 0.671537954,19.7622645 0.847526214,19.5851205 L3.82270351,16.5965415 L6.79788082,13.6079625 C7.69842033,12.7033665 9.23605903,13.1175495 9.56563047,14.3532015 L10.6548063,18.4354995 L11.7439821,22.5181605 C11.802163,22.7370495 11.8010789,22.9483155 11.7754215,23.1534105 C12.4800972,18.1120665 16.0999625,13.7259375 21.2954106,12.3276615 C25.3359132,11.2401135 29.4486901,12.1984335 32.5456499,14.5637415 C32.6143106,14.6167395 32.6840554,14.6679225 32.7519934,14.7220095 C32.8911217,14.8109445 33.0454276,14.8831815 33.2174408,14.9296455 L37.2817939,16.0233645 L41.346147,17.1170835 C42.576258,17.4485025 43.7019323,16.3177575 43.3723609,15.0817425" id="Fill-13" fill="#D01F5C"></path>
                    <path d="M48.4873314,18.5400798 C47.1712139,13.6061838 44.4522494,9.4189788 40.8775557,6.2939118 C41.0195749,6.4685148 41.1305162,6.6768768 41.1941177,6.9171828 L42.2832935,10.9994808 L43.3724693,15.0817788 C43.7020408,16.3177938 42.5763664,17.4485388 41.345894,17.1171198 L37.2819023,16.0234008 L33.2175492,14.9296818 C33.045536,14.8832178 32.8912301,14.8109808 32.7521018,14.7220458 C34.8668519,16.4045508 36.4814629,18.7567908 37.2320329,21.5696778 C38.9268685,27.9239928 35.6344065,34.4587188 29.7769245,36.9692268 C29.6432168,37.0265808 29.508425,37.0828458 29.3721876,37.1358438 C29.2489597,37.2073548 29.1311524,37.2959268 29.0231021,37.4044638 L26.0479248,40.3930428 L23.0727475,43.3816218 C22.172208,44.2862178 22.5841723,45.8307828 23.8146446,46.1622018 L27.8786364,47.2559208 L31.9426281,48.3496398 C32.2151027,48.4229658 32.4789044,48.4149798 32.7268058,48.3594408 C32.8420835,48.3195108 32.9573612,48.2792178 33.0722776,48.2378358 C44.9719027,43.9108758 51.8224354,31.0414368 48.4873314,18.5400798" id="Fill-15" fill="#1C75BB"></path>
                    <path d="M31.9425558,48.3497487 L27.8785641,47.2560297 L23.8145724,46.1619477 C22.5844614,45.8308917 22.1721357,44.2863267 23.0726752,43.3813677 L26.0478525,40.3931517 L29.0230298,37.4045727 C29.1314415,37.2960357 29.2488875,37.2071007 29.3724767,37.1359527 C28.9381074,37.3047477 28.4907286,37.4535777 28.0310631,37.5773607 C21.1006671,39.4428177 13.9520023,35.2966317 12.0949106,28.3353807 C11.6312701,26.5962477 11.540927,24.8433207 11.7740121,23.1633567 C11.7747349,23.1597267 11.7750962,23.1564597 11.7754576,23.1531927 C11.801115,22.9484607 11.8021991,22.7368317 11.7436568,22.5179427 L10.6548424,18.4356447 L9.56566661,14.3529837 C9.23609517,13.1173317 7.69845647,12.7035117 6.79791695,13.6081077 L3.82273965,16.5966867 L0.847562352,19.5852657 C0.671574091,19.7620467 0.546900683,19.9638747 0.4673988,20.1758667 C0.429816091,20.3682567 0.396569849,20.5613727 0.362962235,20.7544887 C-0.228965424,24.1833867 -0.11477181,27.7887027 0.839250791,31.3649787 C4.35937737,44.5607547 17.910112,52.4197047 31.0467141,48.8840847 C31.618405,48.7301727 32.1760023,48.5504877 32.7267335,48.3595497 C32.4788322,48.4147257 32.2150305,48.4230747 31.9425558,48.3497487" id="Fill-17" fill="#662D8A"></path>
                </g>
            </g>
        </g>
    </g>
</svg>